# xmcd
#
# Track frame offsets:
#	150
#	18273
#	35660
#	52270
#	67400
#	75660
#	84383
#	93110
#	108020
#	118983
#	136093
#
# Disc length: 2010 seconds
#
# Revision: 1
# Processed by: cddbd v1.5.2PL0 Copyright (c) Steve Scherf et al.
# Submitted via: EZCDAudioConverter 1.3.2.1
#
DISCID=8e07d80b
DTITLE=MBC 미니시리즈 - ״사랑을그대품안에
DYEAR=1994
DGENRE=Ballad
TTITLE0=최진영 - 사랑을그대품안에
TTITLE1=신용택 - 돌아서기전에
TTITLE2=박용진 - 그대처음
TTITLE3=심상원 - 사랑을그대품안에(바이올린연주)
TTITLE4=김동석 - 사랑의테마2(바이올린연주)
TTITLE5=김경주 - 타이틀1
TTITLE6=최선경 - 타이틀2
TTITLE7=김동석 - 사랑의테마1(바이올린연주)
TTITLE8=정동구 - 사랑의테마1(연주곡)
TTITLE9=최진영 - 사랑을그대품안에(피아노연주)
TTITLE10=이정식 - 사랑을그대품안에(섹스폰연주)
EXTD=
EXTT0=
EXTT1=
EXTT2=
EXTT3=
EXTT4=
EXTT5=
EXTT6=
EXTT7=
EXTT8=
EXTT9=
EXTT10=
PLAYORDER=
